<?xml version='1.0' encoding='utf-8'?>
<svg xmlns="http://www.w3.org/2000/svg" width="6000" zoomAndPan="magnify" viewBox="0 0 4500 2924.999874" height="3900" preserveAspectRatio="xMidYMid meet" version="1.0"><rect x="-450" width="5400" fill="#ffffff" y="-292.499987" height="3509.999849" fill-opacity="1"/><rect x="-450" width="5400" fill="#ff1616" y="-292.499987" height="3509.999849" fill-opacity="1"/><rect x="-450" width="5400" fill="#ffffff" y="-292.499987" height="3509.999849" fill-opacity="1"/><rect x="-450" width="5400" fill="#ff1616" y="-292.499987" height="3509.999849" fill-opacity="1"/><path fill="#ffffff" d="M 1532.734375 1253.769531 C 1512.378906 1238.070312 1490.863281 1270.636719 1482.140625 1295.058594 C 1457.714844 1362.515625 1393.746094 1416.597656 1322.21875 1418.339844 C 1250.6875 1420.085938 1179.742188 1361.933594 1176.253906 1290.40625 C 1175.089844 1258.421875 1185.558594 1227.019531 1200.675781 1199.109375 C 1247.199219 1111.878906 1339.664062 1047.914062 1438.523438 1045.003906 C 1537.386719 1042.097656 1637.410156 1104.320312 1669.394531 1197.945312 C 1722.3125 1352.628906 1630.429688 1507.3125 1533.316406 1614.894531 C 1342.570312 1825.988281 1325.125 2302.832031 1718.242188 2267.363281 C 1813.613281 2258.636719 1903.753906 2206.300781 1958.417969 2127.796875 C 1983.421875 2216.769531 1999.125 2308.648438 2004.9375 2401.691406 C 1824.082031 2431.351562 1626.359375 2458.101562 1467.601562 2366.21875 C 1337.335938 2290.621094 1258.25 2142.917969 1246.617188 1992.882812 C 1234.988281 1845.175781 1280.929688 1679.445312 1369.320312 1560.234375 C 1432.128906 1475.332031 1564.136719 1396.242188 1543.199219 1274.125 C 1541.457031 1266.566406 1539.128906 1258.421875 1532.734375 1253.769531 Z M 1532.734375 1253.769531 " fill-opacity="1" fill-rule="nonzero"/><path fill="#431a11" d="M 1539.128906 1242.722656 C 1515.285156 1225.859375 1491.445312 1249.117188 1479.8125 1269.472656 C 1473.417969 1280.519531 1469.925781 1292.152344 1464.695312 1303.199219 C 1459.460938 1314.832031 1452.480469 1326.460938 1444.921875 1336.929688 C 1415.84375 1377.054688 1367.578125 1406.128906 1316.984375 1405.546875 C 1268.714844 1404.964844 1221.03125 1375.308594 1199.511719 1332.277344 C 1173.34375 1279.941406 1198.351562 1220.625 1229.171875 1176.429688 C 1289.070312 1090.945312 1398.398438 1038.609375 1501.910156 1065.359375 C 1550.761719 1078.152344 1595.539062 1106.648438 1626.359375 1146.769531 C 1661.253906 1191.546875 1673.464844 1250.28125 1671.136719 1306.109375 C 1668.230469 1365.421875 1647.296875 1422.992188 1618.800781 1474.75 C 1590.886719 1524.757812 1555.996094 1568.957031 1518.195312 1611.988281 C 1471.671875 1665.488281 1438.523438 1729.453125 1416.425781 1796.328125 C 1394.910156 1863.203125 1383.859375 1935.3125 1389.09375 2005.675781 C 1394.328125 2070.808594 1413.519531 2135.355469 1454.226562 2187.113281 C 1497.257812 2241.191406 1561.226562 2270.851562 1628.6875 2279.574219 C 1730.453125 2292.367188 1835.132812 2263.871094 1912.476562 2195.835938 C 1932.828125 2177.808594 1951.4375 2157.453125 1967.140625 2134.773438 C 1959.578125 2133.613281 1951.4375 2133.03125 1943.878906 2131.867188 C 1968.882812 2220.257812 1984.003906 2310.394531 1989.820312 2402.273438 C 1992.726562 2398.203125 1996.214844 2394.132812 1999.125 2390.0625 C 1872.347656 2410.996094 1739.179688 2431.351562 1611.820312 2406.34375 C 1550.761719 2394.714844 1492.027344 2371.453125 1440.851562 2335.398438 C 1394.328125 2302.253906 1355.363281 2257.476562 1326.289062 2208.628906 C 1264.0625 2105.117188 1245.453125 1982.996094 1261.15625 1863.785156 C 1269.296875 1800.980469 1286.742188 1739.339844 1312.332031 1681.769531 C 1335.59375 1629.433594 1365.25 1578.839844 1404.214844 1536.390625 C 1468.183594 1466.609375 1565.878906 1392.171875 1555.996094 1285.753906 C 1554.832031 1271.21875 1552.503906 1255.515625 1540.875 1245.046875 C 1528.664062 1234 1510.632812 1252.027344 1522.847656 1263.074219 C 1531.570312 1270.636719 1530.988281 1288.082031 1530.988281 1298.546875 C 1530.988281 1310.179688 1529.824219 1321.808594 1526.917969 1333.441406 C 1521.101562 1356.699219 1509.472656 1378.214844 1495.515625 1397.988281 C 1465.855469 1439.859375 1426.894531 1474.75 1392 1511.964844 C 1310.003906 1600.9375 1259.992188 1720.152344 1240.222656 1839.363281 C 1220.449219 1961.480469 1233.824219 2086.507812 1291.976562 2196.996094 C 1319.308594 2248.753906 1355.945312 2296.4375 1400.726562 2334.234375 C 1448.992188 2374.941406 1505.984375 2404.019531 1566.460938 2420.882812 C 1693.816406 2456.355469 1829.316406 2441.234375 1957.835938 2421.464844 C 1974.117188 2419.136719 1990.402344 2416.230469 2006.683594 2413.90625 C 2011.917969 2413.324219 2016.570312 2406.925781 2015.988281 2401.691406 C 2010.171875 2308.066406 1994.472656 2215.023438 1969.464844 2124.890625 C 1966.558594 2113.839844 1952.019531 2113.257812 1946.203125 2121.980469 C 1914.21875 2167.339844 1870.605469 2203.394531 1820.59375 2226.65625 C 1774.070312 2248.753906 1723.476562 2257.476562 1671.71875 2256.894531 C 1634.5 2256.3125 1598.445312 2251.078125 1563.554688 2237.121094 C 1535.640625 2226.074219 1509.472656 2208.628906 1487.953125 2186.53125 C 1445.503906 2142.335938 1423.40625 2080.691406 1416.425781 2020.214844 C 1408.285156 1950.433594 1417.589844 1880.648438 1437.941406 1813.773438 C 1457.714844 1748.0625 1490.28125 1684.097656 1534.476562 1632.339844 C 1572.277344 1588.726562 1608.332031 1545.113281 1636.828125 1494.519531 C 1667.066406 1441.601562 1689.164062 1383.449219 1694.980469 1322.972656 C 1700.796875 1265.402344 1690.910156 1202.597656 1660.671875 1152.003906 C 1632.757812 1106.648438 1589.722656 1072.335938 1540.875 1051.984375 C 1437.363281 1008.949219 1320.472656 1042.679688 1243.128906 1120.019531 C 1202.421875 1160.726562 1167.527344 1215.972656 1162.878906 1274.707031 C 1158.804688 1328.789062 1189.628906 1378.796875 1234.40625 1406.710938 C 1280.347656 1435.785156 1336.175781 1438.113281 1385.605469 1416.597656 C 1434.453125 1395.082031 1472.835938 1352.628906 1492.027344 1303.199219 C 1496.097656 1292.734375 1500.75 1281.683594 1507.726562 1272.960938 C 1510.636719 1269.472656 1514.125 1265.402344 1518.195312 1263.65625 C 1521.101562 1262.492188 1522.265625 1263.074219 1525.753906 1265.402344 C 1539.710938 1274.125 1552.503906 1252.027344 1539.128906 1242.722656 Z M 1539.128906 1242.722656 " fill-opacity="1" fill-rule="nonzero"/><path fill="#ffffff" d="M 2593.453125 835.65625 C 2694.640625 852.523438 2787.683594 900.789062 2859.214844 990.925781 C 3040.070312 1220.042969 3113.925781 1655.601562 3142.421875 1944.035156 C 3171.5 2237.703125 3102.878906 2536.023438 2783.03125 2621.507812 C 2465.515625 2706.410156 2006.683594 2686.636719 1862.464844 2337.726562 C 1713.589844 1978.34375 1804.890625 1053.726562 2233.484375 883.34375 C 2348.042969 837.984375 2475.984375 815.886719 2593.453125 835.65625 Z M 2593.453125 835.65625 " fill-opacity="1" fill-rule="nonzero"/><path fill="#431a11" d="M 2589.964844 847.871094 C 2694.058594 865.898438 2785.941406 918.234375 2851.074219 1001.390625 C 2906.316406 1071.753906 2946.445312 1154.332031 2978.429688 1237.488281 C 3015.066406 1331.695312 3041.816406 1428.808594 3063.914062 1527.085938 C 3085.429688 1622.457031 3101.714844 1718.988281 3113.925781 1816.101562 C 3125.558594 1903.910156 3136.023438 1992.882812 3134.28125 2081.855469 C 3132.535156 2166.757812 3120.90625 2252.242188 3090.664062 2331.910156 C 3061.589844 2407.507812 3014.484375 2476.128906 2950.515625 2526.136719 C 2880.730469 2580.21875 2797.570312 2606.96875 2712.085938 2624.414062 C 2631.253906 2641.277344 2549.257812 2650 2466.679688 2650 C 2383.519531 2650 2300.359375 2641.277344 2220.105469 2619.179688 C 2144.507812 2598.246094 2071.234375 2565.101562 2010.171875 2515.671875 C 1948.53125 2465.660156 1900.261719 2400.53125 1871.1875 2326.09375 C 1849.667969 2270.851562 1835.710938 2212.699219 1826.40625 2154.546875 C 1815.359375 2085.34375 1810.125 2014.980469 1808.378906 1944.617188 C 1806.636719 1867.273438 1810.125 1789.351562 1818.265625 1712.589844 C 1826.40625 1633.503906 1839.203125 1555 1857.230469 1477.65625 C 1874.675781 1402.640625 1897.355469 1328.207031 1926.433594 1257.261719 C 1953.183594 1191.546875 1986.332031 1128.164062 2027.617188 1070.011719 C 2064.253906 1018.835938 2107.871094 971.734375 2160.210938 936.261719 C 2185.796875 918.816406 2213.710938 904.277344 2242.207031 892.648438 C 2299.195312 870.550781 2358.511719 854.265625 2418.410156 846.125 C 2475.402344 839.148438 2533.554688 838.566406 2589.964844 847.871094 C 2606.246094 850.777344 2612.644531 825.773438 2596.941406 823.445312 C 2475.402344 803.09375 2349.789062 824.609375 2235.808594 868.804688 C 2174.164062 892.648438 2120.082031 929.863281 2073.558594 976.386719 C 2024.710938 1025.816406 1984.585938 1083.386719 1952.019531 1144.445312 C 1915.382812 1211.902344 1886.886719 1283.429688 1864.207031 1356.117188 C 1839.785156 1432.878906 1822.335938 1511.964844 1808.960938 1591.632812 C 1795.585938 1672.464844 1787.445312 1753.878906 1784.539062 1835.292969 C 1781.628906 1911.46875 1782.792969 1987.648438 1789.773438 2063.246094 C 1795.585938 2129.539062 1806.054688 2195.835938 1822.917969 2260.382812 C 1841.527344 2329.003906 1870.023438 2395.296875 1913.058594 2452.285156 C 1963.070312 2517.414062 2028.78125 2568.007812 2102.636719 2603.480469 C 2178.816406 2639.535156 2261.394531 2659.886719 2344.554688 2669.773438 C 2430.042969 2679.660156 2516.109375 2678.496094 2601.59375 2668.609375 C 2643.464844 2663.957031 2684.753906 2656.980469 2725.460938 2648.257812 C 2769.074219 2638.953125 2812.109375 2627.902344 2853.398438 2611.039062 C 2935.394531 2577.3125 3006.34375 2523.230469 3057.515625 2450.539062 C 3106.367188 2381.339844 3134.28125 2299.34375 3148.238281 2216.1875 C 3163.355469 2126.050781 3163.355469 2034.171875 3154.632812 1944.035156 C 3145.328125 1850.410156 3133.117188 1756.785156 3117.414062 1664.324219 C 3099.96875 1562.558594 3077.871094 1461.957031 3048.214844 1362.515625 C 3020.300781 1268.308594 2985.40625 1174.683594 2938.304688 1088.621094 C 2890.617188 1001.390625 2828.394531 921.140625 2739.417969 872.292969 C 2695.222656 847.871094 2646.953125 832.167969 2596.941406 823.445312 C 2580.660156 821.121094 2573.679688 845.542969 2589.964844 847.871094 Z M 2589.964844 847.871094 " fill-opacity="1" fill-rule="nonzero"/><path fill="#ffffff" d="M 2725.460938 1203.179688 C 2860.957031 1191.546875 2979.589844 1119.441406 3027.277344 960.101562 C 3047.050781 894.390625 3056.355469 819.957031 3092.410156 760.640625 C 3130.210938 697.257812 3195.339844 660.039062 3248.261719 611.191406 C 3296.527344 566.996094 3307.578125 525.125 3230.816406 508.84375 C 3181.964844 498.375 3131.953125 498.957031 3083.6875 489.652344 C 3016.808594 476.859375 3007.503906 454.761719 2969.707031 402.425781 C 2905.15625 314.617188 2805.132812 255.300781 2702.199219 224.480469 C 2630.671875 202.964844 2554.488281 194.824219 2480.054688 202.964844 C 2445.160156 207.035156 2408.523438 224.480469 2378.285156 211.6875 C 2338.160156 195.402344 2295.125 137.832031 2263.140625 108.757812 C 2196.847656 50.023438 2172.421875 107.011719 2163.699219 170.398438 C 2153.230469 247.160156 2187.542969 323.921875 2156.136719 398.355469 C 2147.414062 419.289062 2137.527344 439.0625 2127.0625 458.25 C 2072.980469 560.015625 2009.589844 643.757812 2031.691406 772.855469 C 2054.371094 904.859375 2147.414062 1011.859375 2260.816406 1076.988281 " fill-opacity="1" fill-rule="nonzero"/><path fill="#431a11" d="M 2725.460938 1215.972656 C 2818.507812 1207.832031 2908.644531 1170.613281 2969.125 1097.921875 C 3002.851562 1057.21875 3026.113281 1009.53125 3040.652344 958.359375 C 3057.515625 899.625 3066.238281 837.402344 3094.152344 782.738281 C 3120.90625 730.402344 3166.265625 693.765625 3211.625 657.710938 C 3233.140625 640.847656 3255.238281 623.402344 3273.265625 602.46875 C 3286.0625 587.929688 3299.4375 568.738281 3298.855469 548.386719 C 3298.273438 527.453125 3282.570312 512.914062 3263.960938 504.773438 C 3234.304688 491.980469 3200.574219 489.070312 3168.589844 486.164062 C 3136.023438 482.675781 3102.878906 480.929688 3070.3125 472.789062 C 3051.703125 468.136719 3034.257812 461.160156 3020.878906 448.367188 C 3006.34375 434.410156 2995.292969 416.964844 2983.082031 400.679688 C 2966.214844 377.421875 2947.605469 355.902344 2927.253906 336.132812 C 2884.800781 296.007812 2835.371094 264.605469 2782.453125 240.179688 C 2724.296875 214.011719 2662.65625 196.566406 2599.847656 189.007812 C 2566.121094 184.9375 2531.808594 184.355469 2498.082031 187.261719 C 2481.796875 188.425781 2465.515625 190.753906 2449.230469 194.242188 C 2434.695312 197.730469 2419.574219 201.800781 2404.453125 202.382812 C 2378.285156 202.964844 2357.929688 186.101562 2339.902344 169.234375 C 2320.132812 150.628906 2302.105469 130.273438 2282.914062 110.503906 C 2265.46875 93.054688 2244.53125 73.867188 2218.363281 70.957031 C 2197.425781 68.632812 2180.5625 82.007812 2170.675781 98.871094 C 2159.046875 119.226562 2153.8125 143.066406 2150.90625 166.328125 C 2146.253906 199.476562 2149.160156 232.039062 2152.648438 265.1875 C 2156.136719 297.171875 2159.628906 329.734375 2153.230469 361.71875 C 2146.835938 394.285156 2129.96875 424.523438 2114.269531 453.597656 C 2088.097656 502.445312 2058.441406 549.550781 2038.085938 601.304688 C 2016.570312 655.386719 2009.011719 712.957031 2018.316406 770.527344 C 2035.179688 879.855469 2102.054688 975.804688 2187.542969 1042.679688 C 2208.476562 1058.960938 2230.574219 1074.082031 2253.835938 1087.457031 C 2267.792969 1095.597656 2280.585938 1073.5 2266.628906 1065.359375 C 2177.074219 1013.601562 2098.566406 934.515625 2061.929688 836.238281 C 2042.738281 785.066406 2034.015625 729.238281 2043.320312 675.160156 C 2052.042969 623.402344 2075.304688 576.300781 2100.3125 530.941406 C 2113.6875 506.515625 2127.644531 482.675781 2140.4375 458.25 C 2155.558594 429.757812 2171.839844 399.519531 2178.238281 367.535156 C 2190.449219 304.148438 2168.933594 241.34375 2175.328125 177.378906 C 2177.65625 155.859375 2181.726562 132.019531 2192.195312 112.828125 C 2200.335938 97.707031 2210.804688 91.894531 2227.085938 98.289062 C 2249.183594 107.59375 2266.046875 128.527344 2282.332031 145.394531 C 2300.941406 164.582031 2318.96875 184.9375 2339.902344 201.21875 C 2361.421875 218.082031 2384.101562 229.132812 2412.59375 226.226562 C 2427.714844 224.480469 2441.671875 220.992188 2456.210938 218.082031 C 2471.332031 214.59375 2487.03125 212.851562 2502.734375 211.6875 C 2569.027344 207.035156 2635.324219 215.757812 2698.128906 234.949219 C 2751.628906 251.230469 2802.804688 274.492188 2849.328125 305.894531 C 2895.269531 336.714844 2934.230469 374.511719 2966.214844 419.289062 C 2977.847656 435.570312 2988.894531 452.4375 3004.015625 466.394531 C 3018.554688 479.769531 3036 489.070312 3055.191406 494.304688 C 3115.671875 512.332031 3181.382812 504.773438 3241.863281 523.382812 C 3250.585938 526.289062 3261.054688 529.777344 3267.453125 536.757812 C 3272.105469 541.410156 3273.265625 545.480469 3273.265625 550.714844 C 3273.265625 556.527344 3269.777344 564.089844 3265.707031 570.484375 C 3259.890625 579.789062 3252.914062 587.347656 3245.351562 594.910156 C 3205.808594 633.871094 3157.542969 663.527344 3119.160156 703.652344 C 3099.386719 724.585938 3082.523438 747.847656 3069.730469 774.015625 C 3056.9375 800.765625 3047.632812 829.261719 3040.070312 857.757812 C 3025.53125 912.417969 3015.648438 968.246094 2990.058594 1018.835938 C 2969.707031 1059.542969 2941.210938 1095.597656 2905.15625 1123.511719 C 2870.84375 1150.261719 2830.71875 1168.289062 2788.265625 1179.335938 C 2767.332031 1184.570312 2746.394531 1188.058594 2724.878906 1189.804688 C 2709.179688 1192.128906 2708.597656 1217.71875 2725.460938 1215.972656 Z M 2725.460938 1215.972656 " fill-opacity="1" fill-rule="nonzero"/><path fill="#efc083" d="M 3015.066406 958.359375 C 3034.253906 893.808594 3044.140625 820.539062 3079.035156 761.804688 C 3116.253906 699.582031 3180.222656 662.363281 3232.558594 614.679688 C 3279.664062 571.066406 3291.292969 529.777344 3215.695312 513.496094 C 3168.007812 503.609375 3118.578125 503.609375 3070.890625 494.304688 C 3004.597656 481.511719 2996.457031 459.996094 2958.65625 408.820312 C 2898.175781 326.246094 2805.710938 269.839844 2709.179688 237.855469 C 2706.851562 273.328125 2708.597656 309.382812 2716.15625 345.4375 C 2734.183594 430.917969 2781.871094 508.84375 2793.5 595.488281 C 2809.785156 715.285156 2755.699219 835.65625 2765.003906 956.613281 C 2770.820312 1031.046875 2799.898438 1100.25 2841.1875 1163.054688 C 2919.695312 1128.746094 2983.082031 1064.777344 3015.066406 958.359375 Z M 3015.066406 958.359375 " fill-opacity="1" fill-rule="nonzero"/><path fill="#431a11" d="M 2865.609375 802.511719 C 2862.703125 750.757812 2805.132812 711.210938 2755.121094 725.167969 C 2740.582031 729.238281 2729.53125 737.382812 2720.226562 749.59375 C 2716.738281 754.246094 2719.644531 761.804688 2724.296875 764.710938 C 2730.113281 768.203125 2735.347656 765.292969 2739.417969 760.640625 C 2746.394531 751.917969 2756.28125 746.683594 2767.914062 744.941406 C 2778.378906 743.195312 2790.59375 745.523438 2801.640625 749.59375 C 2823.742188 758.316406 2842.929688 778.667969 2844.09375 802.511719 C 2844.675781 816.46875 2866.191406 816.46875 2865.609375 802.511719 Z M 2865.609375 802.511719 " fill-opacity="1" fill-rule="nonzero"/><path fill="#431a11" d="M 2425.390625 623.402344 C 2422.480469 571.648438 2364.910156 532.105469 2314.898438 546.0625 C 2300.359375 550.132812 2289.308594 558.273438 2280.003906 570.484375 C 2276.515625 575.136719 2279.421875 582.695312 2284.074219 585.605469 C 2289.890625 589.09375 2295.125 586.1875 2299.195312 581.535156 C 2306.175781 572.8125 2316.058594 567.578125 2327.691406 565.832031 C 2338.160156 564.089844 2350.371094 566.414062 2361.421875 570.484375 C 2383.519531 579.207031 2402.710938 599.5625 2403.871094 623.402344 C 2404.453125 637.359375 2426.550781 637.359375 2425.390625 623.402344 Z M 2425.390625 623.402344 " fill-opacity="1" fill-rule="nonzero"/><path fill="#f27276" d="M 2260.234375 667.597656 C 2196.847656 638.523438 2111.941406 683.882812 2101.472656 752.5 C 2094.496094 796.113281 2120.082031 841.472656 2156.71875 864.734375 C 2203.242188 894.390625 2258.488281 876.945312 2296.289062 839.730469 C 2345.71875 790.300781 2321.875 696.09375 2260.234375 667.597656 Z M 2260.234375 667.597656 " fill-opacity="0.3176" fill-rule="nonzero"/><path fill="#f27276" d="M 2883.058594 872.292969 C 2819.667969 843.21875 2734.765625 888.578125 2724.296875 957.195312 C 2717.320312 1000.808594 2742.90625 1046.167969 2779.542969 1069.429688 C 2826.066406 1099.085938 2881.3125 1081.640625 2919.113281 1044.425781 C 2968.542969 994.996094 2944.699219 901.371094 2883.058594 872.292969 Z M 2883.058594 872.292969 " fill-opacity="0.3176" fill-rule="nonzero"/><path fill="#431a11" d="M 2991.804688 550.132812 C 3043.558594 553.039062 3094.734375 560.597656 3145.328125 572.8125 C 3143.003906 566.414062 3140.09375 560.597656 3137.769531 554.203125 C 3121.484375 582.695312 3095.316406 603.050781 3063.914062 612.355469 C 3048.210938 617.007812 3054.609375 641.429688 3070.890625 636.777344 C 3108.109375 626.3125 3140.675781 600.722656 3159.867188 566.996094 C 3163.9375 560.015625 3160.449219 550.132812 3152.308594 548.386719 C 3099.96875 536.175781 3045.886719 528.035156 2992.386719 525.125 C 2975.519531 523.382812 2975.519531 548.96875 2991.804688 550.132812 Z M 2991.804688 550.132812 " fill-opacity="1" fill-rule="nonzero"/><path fill="#431a11" d="M 2327.109375 810.070312 C 2267.210938 733.308594 2181.726562 682.71875 2094.496094 642.59375 C 1997.378906 597.234375 1895.609375 562.925781 1790.933594 539.664062 C 1732.199219 526.289062 1672.300781 516.984375 1611.820312 511.167969 C 1606.589844 510.589844 1606.589844 519.3125 1611.820312 519.890625 C 1717.660156 530.359375 1822.335938 551.875 1923.523438 585.023438 C 1974.117188 601.304688 2023.546875 620.496094 2071.816406 642.011719 C 2116.011719 661.785156 2159.628906 683.882812 2200.335938 710.050781 C 2245.695312 739.125 2287.566406 774.015625 2320.710938 816.46875 C 2324.203125 820.539062 2330.597656 814.140625 2327.109375 810.070312 Z M 2327.109375 810.070312 " fill-opacity="1" fill-rule="nonzero"/><path fill="#431a11" d="M 2285.820312 802.511719 C 2216.617188 747.265625 2131.132812 719.355469 2045.648438 700.746094 C 1948.53125 679.8125 1848.507812 669.925781 1749.0625 670.507812 C 1692.65625 671.085938 1636.246094 675.160156 1579.835938 682.136719 C 1575.183594 682.71875 1574.605469 690.859375 1579.835938 689.695312 C 1676.953125 676.902344 1775.816406 674.578125 1874.09375 682.71875 C 1966.558594 690.277344 2060.765625 705.980469 2148.578125 736.800781 C 2195.683594 753.664062 2241.042969 776.34375 2280.585938 807.746094 C 2284.65625 811.234375 2289.890625 806 2285.820312 802.511719 Z M 2285.820312 802.511719 " fill-opacity="1" fill-rule="nonzero"/><path fill="#431a11" d="M 2286.984375 839.730469 C 2174.746094 801.347656 2056.113281 783.902344 1937.480469 785.648438 C 1819.429688 787.972656 1701.960938 810.070312 1590.886719 850.777344 C 1528.664062 874.039062 1468.765625 903.113281 1411.773438 938.003906 C 1407.121094 940.914062 1411.191406 948.472656 1415.84375 945.566406 C 1515.867188 883.925781 1626.359375 840.308594 1741.503906 816.46875 C 1856.066406 792.625 1975.28125 787.390625 2091.589844 803.09375 C 2157.300781 811.816406 2221.851562 826.933594 2284.65625 847.871094 C 2289.890625 849.613281 2292.21875 841.472656 2286.984375 839.730469 Z M 2286.984375 839.730469 " fill-opacity="1" fill-rule="nonzero"/><path fill="#431a11" d="M 2339.902344 775.761719 C 2345.136719 779.832031 2350.953125 771.691406 2345.71875 767.621094 C 2340.484375 763.550781 2334.667969 771.691406 2339.902344 775.761719 Z M 2339.902344 775.761719 " fill-opacity="1" fill-rule="nonzero"/><path fill="#431a11" d="M 2377.121094 745.523438 C 2382.355469 749.59375 2388.171875 741.453125 2382.9375 737.382812 C 2377.703125 733.308594 2371.886719 741.453125 2377.121094 745.523438 Z M 2377.121094 745.523438 " fill-opacity="1" fill-rule="nonzero"/><path fill="#431a11" d="M 2371.304688 782.738281 C 2376.539062 786.808594 2382.355469 778.667969 2377.121094 774.597656 C 2371.886719 770.527344 2366.074219 778.667969 2371.304688 782.738281 Z M 2371.304688 782.738281 " fill-opacity="1" fill-rule="nonzero"/><path fill="#431a11" d="M 2703.945312 914.746094 C 2709.179688 918.816406 2714.992188 910.675781 2709.757812 906.605469 C 2704.527344 902.53125 2698.710938 910.675781 2703.945312 914.746094 Z M 2703.945312 914.746094 " fill-opacity="1" fill-rule="nonzero"/><path fill="#431a11" d="M 2570.191406 854.265625 C 2664.398438 816.46875 2767.914062 817.632812 2867.355469 826.933594 C 2969.707031 836.820312 3071.472656 858.335938 3169.171875 889.15625 C 3224.417969 906.605469 3279.082031 927.539062 3332 951.960938 C 3336.652344 954.289062 3341.304688 946.726562 3336.074219 944.402344 C 3241.863281 901.371094 3143.003906 868.222656 3041.234375 846.125 C 2990.640625 835.078125 2939.464844 826.355469 2887.710938 820.539062 C 2836.535156 814.722656 2785.359375 811.234375 2734.183594 812.980469 C 2677.195312 815.304688 2620.203125 824.027344 2566.703125 845.542969 C 2562.632812 847.871094 2564.957031 856.011719 2570.191406 854.265625 Z M 2570.191406 854.265625 " fill-opacity="1" fill-rule="nonzero"/><path fill="#431a11" d="M 2609.152344 867.640625 C 2706.851562 852.523438 2804.550781 878.691406 2895.851562 910.675781 C 2982.5 941.496094 3066.238281 981.039062 3145.328125 1028.140625 C 3189.527344 1054.890625 3232.558594 1084.546875 3273.847656 1115.949219 C 3277.917969 1118.859375 3281.988281 1112.460938 3277.917969 1108.972656 C 3203.484375 1051.984375 3123.230469 1001.972656 3038.90625 961.265625 C 2954.003906 919.976562 2862.703125 884.503906 2770.238281 865.898438 C 2716.738281 854.847656 2661.492188 850.777344 2607.410156 859.5 C 2602.175781 860.664062 2603.921875 868.222656 2609.152344 867.640625 Z M 2609.152344 867.640625 " fill-opacity="1" fill-rule="nonzero"/><path fill="#431a11" d="M 2585.3125 899.625 C 2700.453125 922.304688 2811.527344 965.917969 2911.550781 1026.398438 C 3012.15625 1086.875 3102.296875 1164.796875 3177.3125 1254.933594 C 3219.183594 1305.527344 3256.402344 1360.769531 3287.804688 1418.921875 C 3290.132812 1423.574219 3297.691406 1419.503906 3295.363281 1414.851562 C 3239.539062 1310.761719 3164.519531 1217.136719 3076.707031 1138.046875 C 2988.894531 1059.542969 2888.289062 995.574219 2779.542969 950.21875 C 2717.902344 924.050781 2653.351562 904.859375 2587.636719 891.484375 C 2582.402344 890.320312 2580.078125 898.460938 2585.3125 899.625 Z M 2585.3125 899.625 " fill-opacity="1" fill-rule="nonzero"/><path fill="#431a11" d="M 2691.152344 884.503906 C 2696.382812 888.578125 2702.199219 880.433594 2696.964844 876.363281 C 2691.730469 872.875 2685.917969 881.015625 2691.152344 884.503906 Z M 2691.152344 884.503906 " fill-opacity="1" fill-rule="nonzero"/><path fill="#431a11" d="M 2662.65625 906.605469 C 2667.890625 910.675781 2673.703125 902.53125 2668.46875 898.460938 C 2663.816406 894.390625 2657.421875 902.53125 2662.65625 906.605469 Z M 2662.65625 906.605469 " fill-opacity="1" fill-rule="nonzero"/><path fill="#431a11" d="M 2659.746094 867.640625 C 2663.816406 856.59375 2646.371094 851.359375 2642.300781 862.40625 C 2632.996094 886.832031 2613.804688 924.050781 2582.984375 918.816406 C 2559.722656 914.746094 2543.441406 890.902344 2538.789062 868.804688 C 2535.300781 852.523438 2536.460938 836.238281 2542.277344 821.121094 C 2542.277344 820.539062 2542.277344 820.539062 2542.277344 819.957031 C 2542.859375 818.792969 2543.441406 818.210938 2544.023438 817.050781 C 2552.746094 794.953125 2560.886719 772.273438 2569.609375 750.175781 C 2571.355469 745.523438 2567.863281 740.289062 2563.210938 738.542969 C 2557.980469 736.800781 2553.328125 740.289062 2551.582031 744.941406 C 2542.859375 767.039062 2534.71875 789.71875 2525.996094 811.816406 C 2525.996094 811.816406 2525.996094 811.816406 2525.996094 812.398438 C 2525.414062 812.980469 2525.414062 813.558594 2524.832031 814.140625 C 2508.546875 845.542969 2474.238281 868.222656 2438.183594 863.570312 C 2424.808594 861.828125 2412.011719 855.429688 2405.035156 843.800781 C 2395.148438 828.097656 2398.058594 808.328125 2403.289062 791.460938 C 2406.78125 780.414062 2389.332031 775.179688 2385.84375 786.230469 C 2375.957031 817.632812 2378.285156 854.847656 2409.6875 873.457031 C 2437.019531 889.15625 2471.910156 884.503906 2498.082031 869.386719 C 2505.058594 865.316406 2511.457031 860.664062 2517.269531 854.847656 C 2517.851562 876.363281 2525.414062 897.300781 2538.789062 914.164062 C 2557.980469 938.003906 2590.542969 947.890625 2617.296875 930.445312 C 2639.394531 914.164062 2651.605469 890.320312 2659.746094 867.640625 Z M 2659.746094 867.640625 " fill-opacity="1" fill-rule="nonzero"/><path fill="#f27276" d="M 2581.242188 721.097656 C 2560.304688 711.210938 2531.226562 712.957031 2527.738281 736.21875 C 2524.832031 756.570312 2543.441406 780.996094 2564.957031 779.832031 C 2578.914062 779.25 2598.105469 766.457031 2601.59375 752.5 C 2604.5 737.960938 2593.453125 726.914062 2581.242188 721.097656 Z M 2581.242188 721.097656 " fill-opacity="1" fill-rule="nonzero"/><path fill="#431a11" d="M 2281.75 241.34375 C 2283.496094 242.507812 2280.585938 240.179688 2281.75 241.34375 C 2282.332031 241.925781 2282.914062 242.507812 2283.496094 242.507812 C 2284.65625 243.671875 2285.820312 244.25 2286.402344 245.414062 C 2288.726562 247.160156 2291.054688 249.484375 2292.800781 251.230469 C 2296.871094 255.300781 2300.941406 259.953125 2305.011719 264.605469 C 2305.59375 265.769531 2306.757812 266.929688 2307.335938 268.09375 C 2306.757812 266.929688 2306.175781 266.929688 2307.335938 268.09375 C 2307.917969 268.675781 2308.5 269.257812 2308.5 269.839844 C 2310.246094 272.164062 2311.988281 274.492188 2313.734375 276.816406 C 2317.222656 282.050781 2320.132812 287.285156 2322.457031 292.519531 C 2325.363281 298.332031 2334.089844 300.660156 2339.902344 297.171875 C 2345.71875 293.097656 2347.464844 286.121094 2344.554688 279.722656 C 2332.925781 255.882812 2314.898438 235.527344 2293.960938 219.246094 C 2291.636719 217.5 2286.984375 216.921875 2284.074219 218.082031 C 2281.167969 218.664062 2277.679688 220.992188 2276.515625 223.898438 C 2274.773438 226.804688 2274.191406 230.296875 2275.351562 233.785156 C 2277.097656 236.691406 2278.84375 239.019531 2281.75 241.34375 Z M 2281.75 241.34375 " fill-opacity="1" fill-rule="nonzero"/><path fill="#ffffff" d="M 2527.738281 2602.898438 C 2531.808594 2694.195312 2526.574219 2791.3125 2479.472656 2827.363281 C 2417.246094 2875.050781 2312.570312 2843.648438 2284.65625 2770.957031 C 2260.234375 2707.570312 2289.308594 2637.789062 2292.21875 2570.332031 C 2295.125 2508.109375 2275.351562 2447.050781 2256.164062 2387.734375 C 2192.773438 2192.34375 2119.5 2043.476562 2008.429688 1825.988281 " fill-opacity="1" fill-rule="nonzero"/><path fill="#431a11" d="M 2514.945312 2602.898438 C 2517.269531 2650.582031 2517.851562 2700.011719 2507.96875 2747.117188 C 2500.40625 2782.589844 2485.867188 2815.734375 2450.394531 2829.691406 C 2418.410156 2842.484375 2380.027344 2838.996094 2349.789062 2822.714844 C 2314.316406 2804.105469 2292.21875 2771.539062 2288.726562 2731.414062 C 2284.074219 2677.914062 2302.105469 2625.578125 2305.011719 2572.660156 C 2307.917969 2515.671875 2292.800781 2459.84375 2275.933594 2406.34375 C 2246.859375 2313.882812 2212.546875 2223.746094 2173.585938 2135.355469 C 2132.296875 2041.730469 2086.355469 1949.851562 2039.832031 1858.550781 C 2033.433594 1845.757812 2026.457031 1832.382812 2020.058594 1819.589844 C 2012.5 1805.050781 1990.402344 1817.84375 1997.960938 1832.382812 C 2047.390625 1928.917969 2096.820312 2026.03125 2141.019531 2124.886719 C 2181.726562 2215.605469 2217.199219 2308.066406 2248.019531 2402.273438 C 2265.46875 2456.9375 2282.914062 2513.34375 2280.003906 2571.496094 C 2277.097656 2626.160156 2257.90625 2680.242188 2264.304688 2736.066406 C 2269.539062 2780.261719 2291.636719 2818.0625 2330.015625 2841.320312 C 2363.164062 2861.09375 2405.035156 2868.652344 2442.835938 2859.347656 C 2461.445312 2854.695312 2478.890625 2845.972656 2493.429688 2833.761719 C 2507.96875 2820.96875 2517.851562 2802.941406 2524.25 2784.914062 C 2541.113281 2740.136719 2542.859375 2689.542969 2542.277344 2642.441406 C 2542.277344 2629.066406 2541.695312 2616.273438 2541.113281 2602.898438 C 2539.371094 2586.035156 2514.363281 2586.035156 2514.945312 2602.898438 Z M 2514.945312 2602.898438 " fill-opacity="1" fill-rule="nonzero"/><path fill="#ffffff" d="M 2471.332031 1721.894531 C 2484.125 1960.316406 2493.429688 2199.324219 2512.039062 2437.746094 C 2517.851562 2510.4375 2514.945312 2582.546875 2524.832031 2655.234375 C 2531.226562 2704.082031 2539.953125 2780.261719 2582.984375 2812.828125 C 2645.789062 2859.347656 2749.886719 2829.109375 2777.800781 2756.417969 C 2802.222656 2693.035156 2773.148438 2623.25 2770.238281 2555.796875 C 2767.332031 2493.574219 2787.101562 2432.511719 2806.292969 2373.199219 C 2869.679688 2177.808594 2979.011719 1956.246094 3029.023438 1752.714844 " fill-opacity="1" fill-rule="nonzero"/><path fill="#431a11" d="M 2458.535156 1721.894531 C 2468.421875 1902.167969 2475.984375 2082.4375 2487.03125 2262.707031 C 2492.847656 2352.84375 2500.40625 2442.398438 2503.316406 2532.535156 C 2504.476562 2576.148438 2506.804688 2619.179688 2512.621094 2662.214844 C 2516.691406 2692.453125 2520.761719 2723.273438 2530.066406 2752.929688 C 2539.371094 2782.007812 2554.488281 2809.917969 2580.660156 2827.363281 C 2603.921875 2843.066406 2633.578125 2849.460938 2661.492188 2847.71875 C 2720.226562 2844.230469 2776.054688 2807.59375 2792.917969 2749.441406 C 2804.550781 2710.480469 2798.734375 2669.191406 2792.335938 2629.648438 C 2785.359375 2588.359375 2779.542969 2548.234375 2784.777344 2506.367188 C 2790.011719 2463.914062 2803.386719 2422.625 2816.179688 2381.921875 C 2828.394531 2344.703125 2841.1875 2308.066406 2855.144531 2271.429688 C 2912.714844 2118.492188 2980.171875 1969.039062 3025.53125 1812.03125 C 3030.765625 1793.421875 3036 1774.230469 3040.652344 1755.621094 C 3044.722656 1739.921875 3019.71875 1732.945312 3016.226562 1748.644531 C 2978.429688 1903.328125 2913.878906 2049.871094 2856.304688 2197.578125 C 2827.8125 2270.269531 2799.898438 2344.121094 2777.800781 2419.136719 C 2766.167969 2459.261719 2756.863281 2501.132812 2756.863281 2543 C 2756.863281 2583.125 2766.75 2622.667969 2771.984375 2662.214844 C 2776.054688 2697.105469 2777.21875 2734.902344 2758.609375 2765.722656 C 2745.816406 2787.238281 2724.296875 2803.523438 2701.035156 2812.828125 C 2677.195312 2821.550781 2651.023438 2824.457031 2626.019531 2818.058594 C 2599.847656 2811.664062 2579.496094 2795.382812 2566.703125 2771.539062 C 2552.746094 2745.371094 2546.929688 2715.710938 2542.277344 2686.636719 C 2536.460938 2650.582031 2532.972656 2613.945312 2531.230469 2577.3125 C 2528.902344 2533.695312 2528.902344 2489.5 2525.996094 2445.886719 C 2523.085938 2401.691406 2519.597656 2358.078125 2516.691406 2313.882812 C 2505.058594 2137.679688 2497.5 1961.480469 2488.195312 1785.28125 C 2487.03125 1763.765625 2485.867188 1742.246094 2484.707031 1720.730469 C 2483.542969 1705.613281 2457.953125 1705.613281 2458.535156 1721.894531 Z M 2458.535156 1721.894531 " fill-opacity="1" fill-rule="nonzero"/></svg>